<?xml version="1.0" encoding="utf-8"?>
<!-- Generator: Adobe Illustrator 28.0.0, SVG Export Plug-In . SVG Version: 6.00 Build 0)  -->
<svg version="1.1" id="Layer_1" xmlns="http://www.w3.org/2000/svg" xmlns:xlink="http://www.w3.org/1999/xlink" x="0px" y="0px"
	 viewBox="0 0 100 100" style="enable-background:new 0 0 100 100;" xml:space="preserve">
<style type="text/css">
	.st0{fill:none;stroke:#000000;stroke-linecap:round;stroke-linejoin:round;stroke-miterlimit:10;}
	.st1{fill:#B9FF66;}
	.st2{fill:none;stroke:#B9FF66;stroke-miterlimit:10;}
	.st3{fill:#FFFFFF;}
</style>
<polygon class="st0" points="59.8,21.5 43.2,19.3 57.8,27 43.7,34.9 59.8,32.8 53.3,46.3 64.6,36.3 67.5,52.3 70.4,35.8 82.4,47.7 
	75.1,32.5 91.7,35 77,27.1 91.7,19.3 75.1,21.6 82.5,6.5 70.6,18.1 67.5,1.4 64.4,17.9 52.3,6.3 "/>
<polygon class="st1" points="41.8,98.6 36.2,88.4 26,82.8 36.2,77.2 41.8,66.9 47.4,77.2 57.7,82.8 47.4,88.4 "/>
<ellipse class="st2" cx="49.6" cy="50.4" rx="41.4" ry="8.3"/>
<ellipse class="st2" cx="49.6" cy="56.4" rx="41.4" ry="8.3"/>
<ellipse class="st2" cx="49.6" cy="62.4" rx="41.4" ry="8.3"/>
<polygon class="st3" points="85.2,82.6 76.7,74.8 68.2,82.8 69,71.2 57.5,69.6 67,62.9 61.2,53 72.3,56.3 76.4,45.4 80.8,56.2 
	91.8,52.7 86.1,62.8 95.7,69.2 84.3,71.1 "/>
<g>
	<circle cx="46.2" cy="47.3" r="15.6"/>
	<ellipse class="st3" cx="41.8" cy="43.2" rx="1.9" ry="4.1"/>
	<ellipse class="st3" cx="49.5" cy="43.2" rx="1.9" ry="4.1"/>
</g>
</svg>
