<?xml version="1.0" encoding="utf-8"?>
<!-- Generator: Adobe Illustrator 24.3.0, SVG Export Plug-In . SVG Version: 6.00 Build 0)  -->
<svg version="1.1" id="Layer_1" xmlns="http://www.w3.org/2000/svg" xmlns:xlink="http://www.w3.org/1999/xlink" x="0px" y="0px"
	 viewBox="0 0 40.7 43.1" style="enable-background:new 0 0 40.7 43.1;" xml:space="preserve">
<style type="text/css">
	.st0{fill:#B9FF66;}
</style>
<path class="st0" d="M10.9,25.5c-0.7,0.4-1,1.3-0.5,2c0.4,0.7,1.3,1,2,0.5L10.9,25.5z M30.4,17.1c0.2-0.8-0.3-1.6-1.1-1.8l-13-3.5
	c-0.8-0.2-1.6,0.3-1.8,1.1c-0.2,0.8,0.3,1.6,1.1,1.8l11.6,3.1l-3.1,11.6c-0.2,0.8,0.3,1.6,1.1,1.8c0.8,0.2,1.6-0.3,1.8-1.1
	L30.4,17.1z M12.4,28.1l17.3-10l-1.5-2.6l-17.3,10L12.4,28.1z"/>
</svg>
