<?xml version="1.0" encoding="utf-8"?>
<!-- Generator: Adobe Illustrator 28.0.0, SVG Export Plug-In . SVG Version: 6.00 Build 0)  -->
<svg version="1.1" id="Layer_1" xmlns="http://www.w3.org/2000/svg" xmlns:xlink="http://www.w3.org/1999/xlink" x="0px" y="0px"
	 viewBox="0 0 125 48" style="enable-background:new 0 0 125 48;" xml:space="preserve">
<style type="text/css">
	.st0{fill-rule:evenodd;clip-rule:evenodd;}
</style>
<path class="st0" d="M76.7,37.8C69.5,42.5,59.1,45,50.1,45c-12.6,0-23.9-4.1-32.4-11c-0.7-0.5-0.1-1.3,0.7-0.9
	c9.2,4.8,20.7,7.6,32.4,7.6c8,0,16.7-1.5,24.8-4.5C76.8,35.9,77.8,37,76.7,37.8z"/>
<path class="st0" d="M79.6,34.8c-0.9-1-6.1-0.5-8.4-0.2c-0.7,0.1-0.8-0.5-0.2-0.9c4.1-2.6,10.8-1.8,11.6-1c0.8,0.9-0.2,6.8-4.1,9.7
	c-0.6,0.4-1.2,0.2-0.9-0.4C78.6,40.1,80.6,35.8,79.6,34.8z"/>
<path class="st0" d="M71.4,15.6v-2.5c0-0.4,0.3-0.6,0.7-0.6h12.6c0.4,0,0.7,0.3,0.7,0.6v2.1c0,0.4-0.3,0.8-0.9,1.6L78,25.1
	c2.4-0.1,5,0.3,7.2,1.4c0.5,0.2,0.6,0.6,0.7,1V30c0,0.4-0.5,0.8-0.9,0.6c-3.9-1.8-9-2-13.3,0c-0.4,0.2-0.9-0.2-0.9-0.6v-2.5
	c0-0.4,0-1.1,0.5-1.7l7.5-9.6h-6.6C71.7,16.2,71.4,16,71.4,15.6z"/>
<path class="st0" d="M25.6,31.1h-3.8c-0.4,0-0.7-0.3-0.7-0.6V13.2c0-0.3,0.3-0.6,0.7-0.6h3.6c0.4,0,0.7,0.3,0.7,0.6v2.3h0.1
	c0.9-2.2,2.7-3.2,5-3.2c2.4,0,3.9,1,5,3.2c0.9-2.2,3-3.2,5.3-3.2c1.6,0,3.4,0.6,4.4,1.9c1.2,1.5,1,3.6,1,5.5l0,11
	c0,0.3-0.3,0.6-0.7,0.6h-3.8c-0.4,0-0.7-0.3-0.7-0.6v-9.2c0-0.7,0.1-2.6-0.1-3.3c-0.3-1.2-1.1-1.5-2.2-1.5c-0.9,0-1.9,0.5-2.3,1.4
	s-0.4,2.3-0.4,3.3v9.2c0,0.3-0.3,0.6-0.7,0.6H32c-0.4,0-0.7-0.3-0.7-0.6l0-9.2c0-1.9,0.4-4.8-2.4-4.8c-2.7,0-2.6,2.8-2.6,4.8v9.2
	C26.3,30.8,26,31.1,25.6,31.1z"/>
<path class="st0" d="M96.2,12.2c5.7,0,8.7,4.3,8.7,9.8c0,5.3-3.4,9.5-8.7,9.5c-5.6,0-8.6-4.3-8.6-9.7C87.6,16.4,90.7,12.2,96.2,12.2
	z M96.3,15.7c-2.8,0-3,3.4-3,5.5c0,2.1,0,6.7,3,6.7c3,0,3.1-3.7,3.1-5.9c0-1.5-0.1-3.2-0.6-4.6C98.3,16.2,97.5,15.7,96.3,15.7z"/>
<path class="st0" d="M112.3,31.1h-3.8c-0.4,0-0.7-0.3-0.7-0.6l0-17.4c0-0.3,0.3-0.6,0.7-0.6h3.5c0.3,0,0.6,0.2,0.7,0.5v2.7h0.1
	c1.1-2.4,2.6-3.5,5.2-3.5c1.7,0,3.4,0.5,4.5,2c1,1.4,1,3.7,1,5.4v10.9c0,0.3-0.4,0.5-0.7,0.5H119c-0.3,0-0.6-0.3-0.7-0.5v-9.4
	c0-1.9,0.2-4.7-2.4-4.7c-0.9,0-1.8,0.6-2.2,1.4c-0.5,1.1-0.6,2.1-0.6,3.3v9.4C113.1,30.8,112.8,31.1,112.3,31.1z"/>
<path class="st0" d="M61.4,22.8c0,1.3,0,2.4-0.7,3.6c-0.6,1-1.6,1.5-2.6,1.5c-1.5,0-2.3-1-2.3-2.5c0-2.9,2.9-3.4,5.7-3.4V22.8z
	 M65.3,31.1c-0.3,0.2-0.6,0.2-0.9,0.1c-1.3-0.9-1.5-1.4-2.2-2.3c-2.1,1.9-3.6,2.5-6.3,2.5c-3.2,0-5.7-1.8-5.7-5.3
	c0-2.8,1.7-4.6,4.1-5.5c2.1-0.8,5-1,7.2-1.2v-0.4c0-0.8,0.1-1.8-0.5-2.5c-0.5-0.6-1.4-0.9-2.1-0.9c-1.5,0-2.8,0.7-3.1,2
	c-0.1,0.3-0.3,0.6-0.7,0.6l-3.7-0.4c-0.3-0.1-0.7-0.3-0.6-0.7c0.8-4,4.9-5.2,8.6-5.2c1.9,0,4.3,0.4,5.8,1.7c1.9,1.5,1.7,3.6,1.7,5.8
	v5.3c0,1.6,0.7,2.3,1.4,3.1c0.2,0.3,0.3,0.7,0,0.9C67.4,29.4,66,30.5,65.3,31.1L65.3,31.1z"/>
<path class="st0" d="M11.3,22.8c0,1.3,0,2.4-0.7,3.6C9.9,27.4,9,28,7.9,28c-1.5,0-2.3-1-2.3-2.5c0-2.9,2.9-3.4,5.7-3.4V22.8z
	 M15.1,31.1c-0.3,0.2-0.6,0.2-0.9,0.1c-1.3-0.9-1.5-1.4-2.2-2.3c-2.1,1.9-3.6,2.5-6.3,2.5c-3.2,0-5.7-1.8-5.7-5.3
	c0-2.8,1.7-4.6,4.1-5.5c2.1-0.8,5-1,7.2-1.2v-0.4c0-0.8,0.1-1.8-0.5-2.5c-0.5-0.6-1.4-0.9-2.1-0.9c-1.5,0-2.8,0.7-3.1,2
	c-0.1,0.3-0.3,0.6-0.7,0.6l-3.7-0.4c-0.3-0.1-0.7-0.3-0.6-0.7c0.9-4,4.9-5.2,8.6-5.2c1.9,0,4.3,0.4,5.8,1.7c1.9,1.5,1.7,3.6,1.7,5.8
	v5.3c0,1.6,0.7,2.3,1.4,3.1c0.2,0.3,0.3,0.7,0,0.9C17.3,29.4,15.9,30.5,15.1,31.1L15.1,31.1z"/>
</svg>
