<?xml version="1.0" encoding="utf-8"?>
<!-- Generator: Adobe Illustrator 28.0.0, SVG Export Plug-In . SVG Version: 6.00 Build 0)  -->
<svg version="1.1" id="Layer_1" xmlns="http://www.w3.org/2000/svg" xmlns:xlink="http://www.w3.org/1999/xlink" x="0px" y="0px"
	 viewBox="0 0 300 300" style="enable-background:new 0 0 300 300;" xml:space="preserve">
<style type="text/css">
	.st0{fill:none;stroke:#000000;stroke-linecap:round;stroke-linejoin:round;stroke-miterlimit:10;}
	.st1{fill:#B9FF66;}
</style>
<polyline class="st0" points="300,0 300,75.1 281.3,2.4 290.6,76.9 263.1,7.1 281.6,79.9 245.7,14.1 272.8,84.2 229.3,23.1 
	264.6,89.5 213.9,34.4 257.8,95.3 199.8,47.7 251.4,102.3 188.2,61.8 245.8,110 178.2,77.6 241.3,118.3 170.2,94.4 237.9,127.1 
	164.4,112.3 235.5,137.2 160.9,130.8 234.5,146.8 159.6,150 234.6,155.8 160.8,168.6 235.7,164.2 164.2,186.9 238.1,173.4 
	170,204.9 241.5,181.9 178.1,222.3 246.1,190.5 188,237.9 251.7,198.1 200.1,252.7 258.3,205.2 213.9,265.7 265.4,211 228.9,276.7 
	273.1,216 245.3,285.8 281.7,220.1 262.8,292.8 290.6,223.1 280.9,297.5 300,224.9 300,300 "/>
<polygon points="225.9,75.9 246.1,112.8 283,133 246.1,153.2 225.9,190.1 205.7,153.2 168.8,133 205.7,112.8 "/>
<polygon class="st1" points="172.6,196.5 184.2,217.7 205.3,229.2 184.2,240.8 172.6,261.9 161.1,240.8 139.9,229.2 161.1,217.7 "/>
<polygon points="214.5,19.4 219.9,29.3 229.8,34.7 219.9,40.1 214.5,50 209.1,40.1 199.2,34.7 209.1,29.3 "/>
<polygon points="168.8,78.1 170.7,81.6 174.2,83.5 170.7,85.4 168.8,88.9 166.9,85.4 163.4,83.5 166.9,81.6 "/>
</svg>
