<svg xmlns="http://www.w3.org/2000/svg" xmlns:xlink="http://www.w3.org/1999/xlink" viewBox="0 0 60 60" width="60" height="60" preserveAspectRatio="xMidYMid meet" style="width: 100%; height: 100%; transform: translate3d(0px, 0px, 0px); content-visibility: visible;"><defs><clipPath id="__lottie_element_8"><rect width="60" height="60" x="0" y="0"/></clipPath><clipPath id="__lottie_element_10"><path d="M0,0 L100000,0 L100000,100000 L0,100000z"/></clipPath><clipPath id="__lottie_element_14"><path d="M0,0 L100000,0 L100000,100000 L0,100000z"/></clipPath><clipPath id="__lottie_element_18"><path d="M0,0 L100000,0 L100000,100000 L0,100000z"/></clipPath><clipPath id="__lottie_element_22"><path d="M0,0 L100000,0 L100000,100000 L0,100000z"/></clipPath><clipPath id="__lottie_element_26"><path d="M0,0 L100000,0 L100000,100000 L0,100000z"/></clipPath><clipPath id="__lottie_element_30"><path d="M0,0 L100000,0 L100000,100000 L0,100000z"/></clipPath><clipPath id="__lottie_element_34"><path d="M0,0 L100000,0 L100000,100000 L0,100000z"/></clipPath><clipPath id="__lottie_element_44"><path d="M0,0 L100000,0 L100000,100000 L0,100000z"/></clipPath></defs><g clip-path="url(#__lottie_element_8)"><g id="precomp_-ZTwwDTsEHATRhkFRsoyg0" clip-path="url(#__lottie_element_10)" transform="matrix(1,0,0,1,-49970,-49970)" opacity="1" style="display: block;"><g id="precomp__caHTRiFGjhLmnVipTQqW10" clip-path="url(#__lottie_element_14)" transform="matrix(1,0,0,1,0,0)" opacity="1" style="display: block;"/><g id="precomp__kdR1e99s16GXSQlYrvUf9" clip-path="url(#__lottie_element_18)" transform="matrix(1,0,0,1,0,0)" opacity="1" style="display: block;"/><g id="precomp_nIPWx_YSdI83iR0exvCMR6" clip-path="url(#__lottie_element_22)" transform="matrix(1,0,0,1,0,-16.5)" opacity="1" style="display: block;"><g id="precomp_VsW0PtdhYT2-wvz98h4Rd7" clip-path="url(#__lottie_element_34)" transform="matrix(1,0,0,1,0,0)" opacity="1" style="display: block;"><g id="6UevonwU-POQZTkDkv-BR8" transform="matrix(1,0,0,1,50000,50000)" opacity="1" style="display: block;"><g opacity="1" transform="matrix(1,0,0,1,0,0)"><path fill="rgb(0,0,0)" fill-opacity="1" d=" M20,0 C20,-0.8278499841690063 19.327850341796875,-1.5 18.5,-1.5 C18.5,-1.5 -18.5,-1.5 -18.5,-1.5 C-19.327850341796875,-1.5 -20,-0.8278499841690063 -20,0 C-20,0 -20,0 -20,0 C-20,0.8278499841690063 -19.327850341796875,1.5 -18.5,1.5 C-18.5,1.5 18.5,1.5 18.5,1.5 C19.327850341796875,1.5 20,0.8278499841690063 20,0 C20,0 20,0 20,0z"/></g></g></g></g><g id="precomp_TEGSXd1WscQM4aGfyphV-4" clip-path="url(#__lottie_element_26)" transform="matrix(1,0,0,1,0,0)" opacity="1" style="display: block;"><g id="jptHt4e849QjHNHh90Szt5" transform="matrix(1,0,0,1,50000,50000)" opacity="1" style="display: block;"><g opacity="1" transform="matrix(1,0,0,1,0,0)"><path fill="rgb(0,0,0)" fill-opacity="1" d=" M20,0 C20,-0.8278499841690063 19.327850341796875,-1.5 18.5,-1.5 C18.5,-1.5 -18.5,-1.5 -18.5,-1.5 C-19.327850341796875,-1.5 -20,-0.8278499841690063 -20,0 C-20,0 -20,0 -20,0 C-20,0.8278499841690063 -19.327850341796875,1.5 -18.5,1.5 C-18.5,1.5 18.5,1.5 18.5,1.5 C19.327850341796875,1.5 20,0.8278499841690063 20,0 C20,0 20,0 20,0z"/></g></g></g><g id="precomp_Z99fc1xYdfnnfuosRprBe1" clip-path="url(#__lottie_element_30)" transform="matrix(1,0,0,1,0,16)" opacity="1" style="display: block;"><g id="precomp_GRiBsVAt_3DONfYwHB8B-2" clip-path="url(#__lottie_element_44)" transform="matrix(1,0,0,1,0,0)" opacity="1" style="display: block;"><g id="hOKDci9UQDxHtdgdRXVqj3" transform="matrix(1,0,0,1,50000,50000)" opacity="1" style="display: block;"><g opacity="1" transform="matrix(1,0,0,1,0,0)"><path fill="rgb(0,0,0)" fill-opacity="1" d=" M20,0 C20,-0.8278499841690063 19.327850341796875,-1.5 18.5,-1.5 C18.5,-1.5 -18.5,-1.5 -18.5,-1.5 C-19.327850341796875,-1.5 -20,-0.8278499841690063 -20,0 C-20,0 -20,0 -20,0 C-20,0.8278499841690063 -19.327850341796875,1.5 -18.5,1.5 C-18.5,1.5 18.5,1.5 18.5,1.5 C19.327850341796875,1.5 20,0.8278499841690063 20,0 C20,0 20,0 20,0z"/></g></g></g></g></g></g></svg>