<?xml version="1.0" encoding="utf-8"?>
<!-- Generator: Adobe Illustrator 28.0.0, SVG Export Plug-In . SVG Version: 6.00 Build 0)  -->
<svg version="1.1" id="Layer_1" xmlns="http://www.w3.org/2000/svg" xmlns:xlink="http://www.w3.org/1999/xlink" x="0px" y="0px"
	 viewBox="0 0 129 48" style="enable-background:new 0 0 129 48;" xml:space="preserve">
<style type="text/css">
	.st0{clip-path:url(#SVGID_00000182489487643997534270000000104171501220749732_);}
</style>
<g>
	<defs>
		<rect id="SVGID_1_" x="0.3" width="128.6" height="48"/>
	</defs>
	<clipPath id="SVGID_00000114792765156686261210000005710861947580478596_">
		<use xlink:href="#SVGID_1_"  style="overflow:visible;"/>
	</clipPath>
	<path style="clip-path:url(#SVGID_00000114792765156686261210000005710861947580478596_);" d="M14.2,13.1v9.1H4.8v-9.1H0.3v21.7
		h4.5V26h9.4v8.8h4.5V13.1H14.2z"/>
	<path style="clip-path:url(#SVGID_00000114792765156686261210000005710861947580478596_);" d="M33,27.8c0,0.9-0.4,1.7-1.1,2.3
		c-0.7,0.6-1.6,1-2.6,1c-1,0-1.9-0.3-2.6-1c-0.7-0.6-1.1-1.4-1.1-2.3v-9.3h-4.2v9.3c0,1.9,0.8,3.7,2.3,5c1.5,1.3,3.5,2.1,5.6,2.1
		s4.1-0.7,5.6-2.1c1.5-1.3,2.3-3.1,2.3-5v-9.3H33V27.8z"/>
	<path style="clip-path:url(#SVGID_00000114792765156686261210000005710861947580478596_);" d="M64.4,19.5c0-1.9,1.4-2.5,3-2.5
		c1.3,0,2.9,0.8,4,1.9l2.8-2.9c-1.4-1.7-4.2-2.8-6.5-2.8c-4.6,0-7.9,2.4-7.9,6.3c0,7.3,10.1,5,10.1,9.1c0,1.3-1.4,2.4-3,2.4
		c-2.5,0-3.3-1.1-4.5-2.2l-3.1,2.8c2,2.1,4.4,3.2,7.3,3.2c4.4,0,7.9-2.4,7.9-6.2C74.5,20.5,64.4,23,64.4,19.5"/>
	<path style="clip-path:url(#SVGID_00000114792765156686261210000005710861947580478596_);" d="M127,31.3c-2.5,0-3.2-1-3.2-2.4v-6.5
		h3.9v-3.3h-3.9v-4.4l-4.3,1.7v13.3c0,3.4,2.6,5.1,6.3,5.1c0.6,0,1.1,0,1.7-0.1l1-3.4C128.1,31.3,127.5,31.3,127,31.3"/>
	<path style="clip-path:url(#SVGID_00000114792765156686261210000005710861947580478596_);" d="M49.1,18.6c-2.1,0-3.6,0.5-5,1.8
		v-7.1h-4.2v13.2c0,5,4,8.3,8.6,8.3c5,0,9.5-3.5,9.5-8.1C57.9,22.1,53.8,18.6,49.1,18.6L49.1,18.6z M49.1,31c-1,0-1.9-0.3-2.7-0.7
		c-0.8-0.5-1.4-1.1-1.8-1.9c-0.4-0.8-0.5-1.6-0.3-2.5c0.2-0.8,0.6-1.6,1.3-2.2c0.7-0.6,1.5-1,2.5-1.2c0.9-0.2,1.9-0.1,2.8,0.2
		c0.9,0.3,1.6,0.9,2.2,1.6c0.5,0.7,0.8,1.5,0.8,2.4c0,1.1-0.5,2.2-1.4,3C51.6,30.6,50.4,31,49.1,31z"/>
	<path style="clip-path:url(#SVGID_00000114792765156686261210000005710861947580478596_);" d="M95.2,26.5c0-4.7-4.4-8.1-9.5-8.1
		c-4.5,0-8.6,3.4-8.6,8.3V40h4.2v-7.2c1.4,1.2,2.9,1.8,5,1.8C91.1,34.6,95.2,31.1,95.2,26.5L95.2,26.5z M91.2,26.5
		c0,0.8-0.3,1.7-0.8,2.4c-0.5,0.7-1.3,1.2-2.2,1.6c-0.9,0.3-1.8,0.4-2.8,0.2c-0.9-0.2-1.8-0.6-2.5-1.2c-0.7-0.6-1.1-1.4-1.3-2.2
		c-0.2-0.8-0.1-1.7,0.3-2.5c0.4-0.8,1-1.4,1.8-1.9c0.8-0.5,1.7-0.7,2.7-0.7c1.3,0,2.5,0.5,3.4,1.3C90.7,24.2,91.2,25.3,91.2,26.5z"
		/>
	<path style="clip-path:url(#SVGID_00000114792765156686261210000005710861947580478596_);" d="M108.9,18.3v-3.7
		c0.6-0.2,1-0.6,1.4-1.1s0.5-1,0.5-1.5v-0.1c0-0.8-0.3-1.5-1-2c-0.6-0.5-1.4-0.8-2.3-0.8h-0.1c-0.9,0-1.7,0.3-2.3,0.8
		c-0.6,0.5-1,1.3-1,2V12c0,0.5,0.2,1.1,0.5,1.5s0.8,0.8,1.4,1.1v3.7c-1.6,0.2-3.1,0.8-4.4,1.7l-11.6-8c0.1-0.3,0.1-0.5,0.1-0.8
		c0-0.6-0.2-1.3-0.6-1.8c-0.4-0.5-1-1-1.6-1.2c-0.7-0.2-1.4-0.3-2.1-0.2c-0.7,0.1-1.4,0.4-1.9,0.9c-0.5,0.5-0.9,1-1,1.7
		c-0.1,0.6-0.1,1.3,0.2,1.9c0.3,0.6,0.7,1.1,1.3,1.5c0.6,0.4,1.3,0.5,2,0.5c0.6,0,1.3-0.2,1.8-0.4l11.4,7.9c-1,1.4-1.6,3-1.5,4.6
		c0,1.6,0.6,3.2,1.7,4.6l-3.5,3.1c-0.3-0.1-0.6-0.1-0.9-0.1c-0.6,0-1.2,0.2-1.7,0.4c-0.5,0.3-0.9,0.7-1.1,1.2
		c-0.2,0.5-0.3,1-0.2,1.5c0.1,0.5,0.4,1,0.8,1.4c0.4,0.4,1,0.6,1.5,0.7c0.6,0.1,1.2,0.1,1.7-0.2c0.6-0.2,1-0.5,1.4-1
		c0.3-0.4,0.5-1,0.5-1.5c0-0.3-0.1-0.5-0.1-0.8l3.4-3c1.1,0.8,2.4,1.3,3.8,1.5c1.4,0.2,2.8,0.2,4.2-0.1c1.4-0.3,2.6-0.9,3.7-1.7
		c1.1-0.8,1.9-1.8,2.5-3c0.6-1.1,0.8-2.4,0.7-3.6c-0.1-1.2-0.5-2.5-1.2-3.6c-0.7-1.1-1.6-2-2.8-2.7C111.6,19,110.3,18.5,108.9,18.3
		L108.9,18.3z M107.5,30.7c-0.9,0-1.9-0.2-2.6-0.7c-0.8-0.5-1.4-1.1-1.7-1.9c-0.4-0.8-0.5-1.6-0.3-2.4c0.2-0.8,0.6-1.6,1.3-2.2
		c0.7-0.6,1.5-1,2.4-1.2c0.9-0.2,1.9-0.1,2.7,0.2c0.9,0.3,1.6,0.9,2.1,1.6c0.5,0.7,0.8,1.5,0.8,2.3c0,1.1-0.5,2.2-1.4,3
		C109.9,30.2,108.7,30.7,107.5,30.7"/>
</g>
</svg>
