<svg xmlns="http://www.w3.org/2000/svg" xmlns:xlink="http://www.w3.org/1999/xlink" viewBox="0 0 50 50" width="50" height="50" preserveAspectRatio="xMidYMid meet" style="width: 100%; height: 100%; transform: translate3d(0px, 0px, 0px); content-visibility: visible;"><defs><clipPath id="__lottie_element_50"><rect width="50" height="50" x="0" y="0"/></clipPath><clipPath id="__lottie_element_52"><path d="M0,0 L100000,0 L100000,100000 L0,100000z"/></clipPath><clipPath id="__lottie_element_56"><path d="M0,0 L100000,0 L100000,100000 L0,100000z"/></clipPath><clipPath id="__lottie_element_60"><path d="M0,0 L100000,0 L100000,100000 L0,100000z"/></clipPath><clipPath id="__lottie_element_64"><path d="M0,0 L100000,0 L100000,100000 L0,100000z"/></clipPath><clipPath id="__lottie_element_68"><path d="M0,0 L100000,0 L100000,100000 L0,100000z"/></clipPath><clipPath id="__lottie_element_72"><path d="M0,0 L100000,0 L100000,100000 L0,100000z"/></clipPath><clipPath id="__lottie_element_76"><path d="M0,0 L100000,0 L100000,100000 L0,100000z"/></clipPath><g id="__lottie_element_79"><g id="VctAiiXL_1hNdmn2WORXD12" transform="matrix(1,0,0,1,50000,50000)" opacity="1" style="display: block;"><g opacity="1" transform="matrix(1,0,0,1,0,0)"><path fill="rgb(0,0,0)" fill-opacity="1" d=" M25,0 C25,0 25,0 25,0 C25,0 25,0 25,0 C25,0 25,0 25,0 C25,0 25,0 25,0 M25,0 C25,13.8100004196167 13.8100004196167,25 0,25 C-13.8100004196167,25 -25,13.8100004196167 -25,0 C-25,-13.8100004196167 -13.8100004196167,-25 0,-25 C13.8100004196167,-25 25,-13.8100004196167 25,0"/></g></g></g><mask id="__lottie_element_79_1" mask-type="alpha"><use xmlns:ns1="http://www.w3.org/1999/xlink" ns1:href="#__lottie_element_79"/></mask><clipPath id="__lottie_element_89"><path d="M0,0 L100000,0 L100000,100000 L0,100000z"/></clipPath><g id="__lottie_element_92"><g id="4xEfW-b8XaJPv0OIWZnP87" transform="matrix(1,0,0,1,50000,50000)" opacity="1" style="display: block;"><g opacity="1" transform="matrix(1,0,0,1,0,0)"><path fill="rgb(0,0,0)" fill-opacity="1" d=" M1,-15 C1,-15 -1,-15 -1,-15 C-1,-15 -1,15 -1,15 C-1,15 1,15 1,15 C1,15 1,-15 1,-15z"/></g></g></g><mask id="__lottie_element_92_1" mask-type="alpha"><use xmlns:ns2="http://www.w3.org/1999/xlink" ns2:href="#__lottie_element_92"/></mask><clipPath id="__lottie_element_96"><path d="M0,0 L100000,0 L100000,100000 L0,100000z"/></clipPath></defs><g clip-path="url(#__lottie_element_50)"><g id="precomp_khMaz4j6gwQno2Mb1RySN0" clip-path="url(#__lottie_element_52)" transform="matrix(1,0,0,1,-49975,-49975)" opacity="1" style="display: block;"><g id="precomp_tnJSdGvpVCNnMRT6n3zWV14" clip-path="url(#__lottie_element_56)" transform="matrix(1,0,0,1,0,0)" opacity="1" style="display: block;"/><g id="precomp_t7TWrnHiQ0PCWJmXqgxd213" clip-path="url(#__lottie_element_60)" transform="matrix(1,0,0,1,0,0)" opacity="1" style="display: block;"/><g id="precomp_2Wa18B284zLGtQHjbLqrX8" clip-path="url(#__lottie_element_64)" transform="matrix(1,0,0,1,0,0)" opacity="1" style="display: block;"><g mask="url(#__lottie_element_79_1)" style="display: block;"><g id="precomp_2Wa18B284zLGtQHjbLqrX9" clip-path="url(#__lottie_element_76)" transform="matrix(1,0,0,1,0,0)" opacity="1"><g id="yZ5goRj8YX1FEiHm1LrhI11" transform="matrix(1,0,0,1,50000,50000)" opacity="1" style="display: block;"><g opacity="1" transform="matrix(1,0,0,1,0,0)"><path fill="rgb(255,255,255)" fill-opacity="1" d=" M25,0 C25,0 25,0 25,0 C25,0 25,0 25,0 C25,0 25,0 25,0 C25,0 25,0 25,0 M25,0 C25,13.8100004196167 13.8100004196167,25 0,25 C-13.8100004196167,25 -25,13.8100004196167 -25,0 C-25,-13.8100004196167 -13.8100004196167,-25 0,-25 C13.8100004196167,-25 25,-13.8100004196167 25,0"/></g></g><g id="sHLexqJJhQw5YPLXSuxdR10" transform="matrix(1,0,0,1,50000,50000)" opacity="1" style="display: block;"><g opacity="1" transform="matrix(1,0,0,1,0,0)"><path stroke-linecap="butt" stroke-linejoin="miter" fill-opacity="0" stroke-miterlimit="undefined" stroke="rgb(0,0,0)" stroke-opacity="1" stroke-width="2" d=" M25,0 C25,0 25,0 25,0 C25,0 25,0 25,0 C25,0 25,0 25,0 C25,0 25,0 25,0 M25,0 C25,13.8100004196167 13.8100004196167,25 0,25 C-13.8100004196167,25 -25,13.8100004196167 -25,0 C-25,-13.8100004196167 -13.8100004196167,-25 0,-25 C13.8100004196167,-25 25,-13.8100004196167 25,0"/></g></g></g></g></g><g id="precomp_4mw8i-EWDggq7g7u_BSx93" clip-path="url(#__lottie_element_68)" transform="matrix(1,0,0,1,0,0)" opacity="1" style="display: block;"><g mask="url(#__lottie_element_92_1)" style="display: block;"><g id="precomp_4mw8i-EWDggq7g7u_BSx94" clip-path="url(#__lottie_element_89)" transform="matrix(1,0,0,1,0,0)" opacity="1"><g id="precomp_HgLjVzdz8r324_DhoUkvG5" clip-path="url(#__lottie_element_96)" transform="matrix(1,0,0,1,0,0)" opacity="1" style="display: block;"><g id="N_opRqHNliUhfDy_9XjFW6" transform="matrix(1,0,0,1,50000,50000)" opacity="1" style="display: block;"><g opacity="1" transform="matrix(1,0,0,1,0,0)"><path fill="rgb(0,0,0)" fill-opacity="1" d=" M1,-14 C1,-14.551899909973145 0.5519000291824341,-15 0,-15 C0,-15 0,-15 0,-15 C-0.5519000291824341,-15 -1,-14.551899909973145 -1,-14 C-1,-14 -1,14 -1,14 C-1,14.551899909973145 -0.5519000291824341,15 0,15 C0,15 0,15 0,15 C0.5519000291824341,15 1,14.551899909973145 1,14 C1,14 1,-14 1,-14z"/></g></g></g></g></g></g><g id="precomp_kuqvVd_T2eU9u4YP09rtA1" clip-path="url(#__lottie_element_72)" transform="matrix(0,1,-1,0,100000,0)" opacity="1" style="display: block;"><g id="PlgsoUfhlUyzVk4k8K1AO2" transform="matrix(1,0,0,1,50000,50000)" opacity="1" style="display: block;"><g opacity="1" transform="matrix(1,0,0,1,0,0)"><path fill="rgb(0,0,0)" fill-opacity="1" d=" M1,-14 C1,-14.551899909973145 0.5519000291824341,-15 0,-15 C0,-15 0,-15 0,-15 C-0.5519000291824341,-15 -1,-14.551899909973145 -1,-14 C-1,-14 -1,14 -1,14 C-1,14.551899909973145 -0.5519000291824341,15 0,15 C0,15 0,15 0,15 C0.5519000291824341,15 1,14.551899909973145 1,14 C1,14 1,-14 1,-14z"/></g></g></g></g></g></svg>